<svg xmlns="http://www.w3.org/2000/svg" width="206" height="70" viewBox="0 0 206 70"><path d="M33.222 24.896c6.519-7.264 7.852-13.264 4-18-4.255-5.233-29 8-16 20s24 10 26 23-16.43 18-26 18c-9.569 0-18-3-20-12-1.333-6 3.334-8.334 14-7-5.259 10-2.592 15 8 15 15.89 0 20-11 4.89-19-15.112-8-25.89-12-20.89-27s48-25 48-8c0 11.333-7.333 16.333-22 15zm32.744-6.373c-2.81 16.394-4.538 26.937-5.187 31.631-.65 4.694 2.002 2.342 7.954-7.054 2.095-9.004 5.576-15.246 10.444-18.727 10.157-7.263 26.564-3.791 16.015 11.02-2.986 4.192-8.441 6.537-16.367 7.034-.966 6.71.794 10.064 5.28 10.064 4.485 0 9.594-4.214 15.327-12.641 1.713-10.514 3.428-16.937 5.146-19.268 1.717-2.331 4.397-2.64 8.038-.925l-2.22 13.707c4.675-11.081 9.422-16.425 14.24-16.031 5.5.45 3.12 8.333 1.974 14.72-.686 3.819-.908 6.685-.568 7.797.604 1.981 2.916.495 6.935-4.457 2.26-10.57 7.515-17.33 15.764-20.283 12.375-4.43 18.669 5.187 10.958 12.893-5.14 5.138-10.743 7.703-16.807 7.694-.517 6.511 1.114 9.837 4.893 9.977 3.78.14 9.116-4.241 16.01-13.145 1.504-5.203 2.958-8.927 4.36-11.17 5.216-8.344 14.875-12.235 20.018-10.747 7.361 2.13 8.765 9.713 4.213 22.752 1.567-.322 3.034-1.214 4.4-2.676 1.367-1.462 3.458-4.378 6.274-8.746 1.123 1.653 1.5 2.93 1.134 3.827-.55 1.346-2.247 4.51-5.886 7.795-2.427 2.19-5.349 3.655-8.766 4.393-5.584 6.557-11.001 9.55-16.252 8.979-5.251-.571-8.416-3.564-9.496-8.98-5.659 7.45-11.704 11.515-18.135 12.198-6.431.683-10.659-2.447-12.682-9.389a218.284 218.284 0 0 1-4.611 2.92c-1.48.897-7.799 2.663-10.65-.185-1.902-1.899-1.902-6.965 0-15.198-1.171.476-2.253 1.557-3.245 3.242-.992 1.686-2.856 5.61-5.591 11.77-.525 6.996-2.743 10.663-6.654 10.999-3.912.336-5.137-2.373-3.675-8.127-4.923 6.182-10.638 9.732-17.144 10.652-6.506.92-10.603-1.868-12.291-8.363-4.823 7.671-9.484 11.2-13.981 10.585-6.746-.922-3.68-10.374-1.633-21.6 1.364-7.485 2.53-13.2 3.498-17.143-1.243.176-2.082.387-2.515.631-.65.367-.794-1.593-.794-2.152 0-.894 1.238-1.656 3.714-2.287.07-4.194 1.195-6.807 3.374-7.84 2.178-1.032 4.49-.87 6.933.487l-1.007 5.339c2.555-.662 4.305-.896 5.25-.7.946.195 1.341 1.294 1.186 3.297-2.036.228-3.506.432-4.408.612-.902.18-1.824.453-2.767.82zM79 39.88c9.514-5.418 13.751-10.438 12.71-15.06-.851-3.786-4.764-1.404-8.549 4.727-1.095 1.775-2.482 5.22-4.161 10.333zm64-6c9.514-5.418 13.751-10.438 12.71-15.06-.851-3.786-4.764-1.404-8.549 4.727-1.095 1.775-2.482 5.22-4.161 10.333zm43.03-7.573c1.543-8.327 1.239-12.748-.913-13.261-3.226-.771-8.083 8.433-9.443 12.484-.838 2.5-3.592 14.676.553 16.909 2.75 1.481 5.093-.762 7.028-6.73-2.88-3.038-3.739-5.553-2.577-7.545 1.161-1.991 2.945-2.61 5.352-1.857zm-31.786 35.474l-1.945 6.674h-.996L149 60h1.102l1.681 6.873h.07L153.747 60h1.066l1.893 6.873h.07L158.457 60h1.102l-2.303 8.455h-.996l-1.946-6.674h-.07zm13.486 6.674l-.85-2.42h-3.363l-.85 2.42h-1.107L164.677 60h1.043l3.117 8.455h-1.107zm-2.578-7.09l-1.324 3.774h2.742l-1.324-3.774h-.094zm12.015 6.14v.95h-5.133V60h1.055v7.506h4.078zm8.529 0v.95h-5.133V60h1.054v7.506h4.079zm8.634 0v.95h-5.238V60h5.238v.95h-4.184v2.712h3.967v.938h-3.967v2.906h4.184zm6.876.95h-1.054V60.95h-2.725V60h6.504v.95h-2.725v7.505z" fill="#FFF" fill-rule="evenodd"/></svg>